<?xml version="1.0" encoding="UTF-8"?>
<!DOCTYPE svg PUBLIC "-//W3C//DTD SVG 1.1//EN" "http://www.w3.org/Graphics/SVG/1.1/DTD/svg11.dtd">
<svg xmlns="http://www.w3.org/2000/svg" xmlns:xlink="http://www.w3.org/1999/xlink" version="1.1" width="625px" height="254px" viewBox="-0.5 -0.5 625 254" style="background-color: rgb(255, 255, 255);"><defs/><g><rect x="0" y="0" width="624" height="253" rx="37.95" ry="37.95" fill="none" stroke="none" pointer-events="all"/><path d="M 9.37 9.62 C 9.37 9.62 9.37 9.62 9.37 9.62 M 9.37 9.62 C 9.37 9.62 9.37 9.62 9.37 9.62 M 3.86 22.06 C 9.53 12.97 17.85 10.06 20.26 3.19 M 3.86 22.06 C 7.36 16.53 13.15 13.11 20.26 3.19 M 2.29 29.96 C 6.76 22.42 15.25 15.13 23.94 5.06 M 2.29 29.96 C 7.03 24.38 11.33 17.84 23.94 5.06 M 0.06 38.63 C 10.95 33.2 17.49 19.78 30.24 3.91 M 0.06 38.63 C 9.26 30.22 14.83 23.56 30.24 3.91 M 0.45 44.27 C 15.34 34.75 21.88 20.12 38.5 0.5 M 0.45 44.27 C 10.32 30.95 22.51 20.16 38.5 0.5 M 0.19 50.67 C 16.49 33.62 35.75 8.89 43.49 0.86 M 0.19 50.67 C 12.09 34.67 25.67 22.23 43.49 0.86 M 0.59 56.31 C 11.98 41.78 25 30.73 49.13 0.46 M 0.59 56.31 C 9.49 43.68 22.76 30.67 49.13 0.46 M 0.32 62.71 C 21.66 42.86 35.62 23.82 54.12 0.82 M 0.32 62.71 C 9.36 50.82 23.14 36.38 54.12 0.82 M 0.72 68.35 C 17.76 50.74 29.5 35.47 59.76 0.43 M 0.72 68.35 C 11.44 55.63 23.01 38.47 59.76 0.43 M 0.46 74.75 C 23.81 51.4 43.38 23.19 64.75 0.79 M 0.46 74.75 C 18.89 53.45 32.38 36.02 64.75 0.79 M 0.2 81.15 C 25.6 53.71 48.58 28.1 70.39 0.39 M 0.2 81.15 C 22.79 55.03 47.54 29.17 70.39 0.39 M 0.59 86.79 C 15.86 66.73 35.83 45.99 75.38 0.75 M 0.59 86.79 C 26.32 59.24 55.26 26.93 75.38 0.75 M 0.33 93.19 C 18.09 74.76 40.66 50.22 81.02 0.36 M 0.33 93.19 C 26.23 64.69 53.8 34.39 81.02 0.36 M 0.72 98.83 C 34.78 62.61 63.68 23.42 86.01 0.72 M 0.72 98.83 C 24.21 74.76 46.94 48.27 86.01 0.72 M 0.46 105.23 C 36.23 73.79 62.38 32.48 91.65 0.32 M 0.46 105.23 C 32.96 67.47 68.31 28.77 91.65 0.32 M 0.86 110.87 C 30.05 75.94 58.1 46.6 96.64 0.68 M 0.86 110.87 C 21.51 91.43 40.19 66.28 96.64 0.68 M 0.6 117.27 C 31.98 85.02 61.02 48.44 102.28 0.29 M 0.6 117.27 C 36.83 79.33 72.96 38.12 102.28 0.29 M 0.33 123.67 C 33.09 89.34 65.48 53.57 107.27 0.65 M 0.33 123.67 C 28.28 90.6 58.48 55.84 107.27 0.65 M 0.73 129.31 C 28.45 101.44 50.51 73.82 112.91 0.25 M 0.73 129.31 C 28.31 98.88 55.89 64.8 112.91 0.25 M 0.47 135.71 C 48.16 85.89 89.6 34.13 117.9 0.61 M 0.47 135.71 C 21.22 108.62 48.55 80.45 117.9 0.61 M 0.86 141.35 C 36.98 103.42 77.77 56.17 123.54 0.22 M 0.86 141.35 C 24.69 108.08 52.85 79.13 123.54 0.22 M 0.6 147.75 C 39.27 101.61 82.78 54.56 128.53 0.58 M 0.6 147.75 C 50.33 90.09 103.86 30.68 128.53 0.58 M 1 153.39 C 53 97.88 102.46 39.33 134.18 0.19 M 1 153.39 C 52.86 89.86 108.4 30.75 134.18 0.19 M 0.73 159.79 C 47.22 98.94 98.81 49.43 139.16 0.55 M 0.73 159.79 C 37.29 119.25 75.95 76.35 139.16 0.55 M 0.47 166.19 C 33.2 132.45 68.23 94.85 144.81 0.15 M 0.47 166.19 C 48.45 112.12 99.22 53.74 144.81 0.15 M 0.87 171.83 C 36.77 126.37 80.1 79.43 149.79 0.51 M 0.87 171.83 C 51.57 111.49 104.01 50.27 149.79 0.51 M 0.61 178.23 C 60.72 101.75 125.33 36.45 155.44 0.12 M 0.61 178.23 C 40.92 133.1 78.22 87.32 155.44 0.12 M 1 183.87 C 51.83 116.88 108.73 52.97 160.42 0.48 M 1 183.87 C 57.99 118.22 119.42 46.76 160.42 0.48 M 0.74 190.27 C 34.4 150.46 69.63 113.15 165.41 0.84 M 0.74 190.27 C 45.3 137.8 87.53 89.71 165.41 0.84 M 1.13 195.91 C 40.87 145.6 77.89 100.61 171.05 0.44 M 1.13 195.91 C 66.97 125.29 129 51.87 171.05 0.44 M 0.87 202.31 C 64.16 127.37 129.62 56.75 176.04 0.8 M 0.87 202.31 C 65.54 129.39 128.05 54.06 176.04 0.8 M 0.61 208.71 C 40.05 161.19 88.6 109.98 181.68 0.41 M 0.61 208.71 C 65.52 129.49 134.4 47.42 181.68 0.41 M 1 214.35 C 59.41 147.51 119.85 83.29 186.67 0.77 M 1 214.35 C 63.17 149.78 121.48 78.94 186.67 0.77 M 0.74 220.75 C 45.69 163.92 96.48 104.77 192.31 0.37 M 0.74 220.75 C 66.31 145.5 131.84 69.72 192.31 0.37 M 1.79 225.64 C 62.72 160.23 127.02 90.46 197.3 0.73 M 1.79 225.64 C 68.86 146.36 136.33 68.65 197.3 0.73 M 3.5 229.77 C 46.43 171.01 97.74 119.21 202.94 0.34 M 3.5 229.77 C 48.1 178.81 93.98 129.51 202.94 0.34 M 5.21 233.9 C 71.38 161.01 140.79 86.76 207.93 0.7 M 5.21 233.9 C 84.76 143.12 163.45 53.97 207.93 0.7 M 6.26 238.79 C 75.28 162.68 139.19 85.42 213.57 0.3 M 6.26 238.79 C 56.93 179.23 108.58 119.12 213.57 0.3 M 8.62 242.17 C 85.37 149.58 160.02 65.96 218.56 0.66 M 8.62 242.17 C 64.47 174.59 122.95 109.09 218.56 0.66 M 11.64 244.8 C 72.62 178.82 131.43 112.91 224.2 0.27 M 11.64 244.8 C 73.43 169.94 138.76 95.52 224.2 0.27 M 14.66 247.42 C 87.09 162.76 164.95 74.54 229.19 0.63 M 14.66 247.42 C 100.29 154.12 183.32 60.3 229.19 0.63 M 18.33 249.29 C 78.66 179.57 140.64 112.37 234.83 0.23 M 18.33 249.29 C 87.5 168.86 158.92 85.33 234.83 0.23 M 22.01 251.16 C 64.62 195.65 113.72 143.87 239.82 0.59 M 22.01 251.16 C 92.32 164.67 165.52 79.2 239.82 0.59 M 27 251.52 C 104.68 157.19 190.44 61.58 245.46 0.2 M 27 251.52 C 95.77 170.85 163.47 92.79 245.46 0.2 M 31.33 252.63 C 74.62 199.18 121.27 146.23 250.45 0.56 M 31.33 252.63 C 100.92 171.49 169.42 91.75 250.45 0.56 M 36.31 252.99 C 116.94 156.63 199.74 63.58 256.09 0.17 M 36.31 252.99 C 101.41 176.8 168.11 98.9 256.09 0.17 M 39.99 254.86 C 91.27 196.41 139.82 134.88 261.08 0.53 M 39.99 254.86 C 118.76 161.83 197.22 69.31 261.08 0.53 M 45.63 254.47 C 118.86 170.53 195.39 84 266.72 0.13 M 45.63 254.47 C 89.19 206.37 134.66 153.54 266.72 0.13 M 50.62 254.83 C 107.71 182.14 171.79 110.49 271.71 0.49 M 50.62 254.83 C 106.35 187.38 162.21 121.02 271.71 0.49 M 56.26 254.43 C 128.15 167.7 196.68 87.59 276.7 0.85 M 56.26 254.43 C 137.24 160.8 220.21 66.93 276.7 0.85 M 61.25 254.79 C 142.93 159.13 225.42 68.73 282.34 0.46 M 61.25 254.79 C 120.37 187.91 177.79 122.18 282.34 0.46 M 66.24 255.15 C 122.55 189.51 178.92 125.06 287.33 0.82 M 66.24 255.15 C 110.96 200.84 158.22 147.09 287.33 0.82 M 71.88 254.76 C 120.33 197.98 173.96 143.31 292.97 0.42 M 71.88 254.76 C 156.08 163.56 235.04 69.48 292.97 0.42 M 76.87 255.12 C 124.55 196.68 172.5 145.36 297.96 0.78 M 76.87 255.12 C 118.67 203.91 164.08 151.36 297.96 0.78 M 82.51 254.73 C 133.74 198.9 188.81 138.49 303.6 0.39 M 82.51 254.73 C 134 196.97 181.33 138.76 303.6 0.39 M 87.5 255.09 C 168.1 161.02 247.81 72.2 308.59 0.75 M 87.5 255.09 C 141.98 193.84 195.19 131.74 308.59 0.75 M 93.14 254.69 C 153.2 188.54 212.88 121.72 314.23 0.35 M 93.14 254.69 C 151.99 190.21 207.56 125.88 314.23 0.35 M 98.13 255.05 C 143.22 195.09 193.2 139.82 319.22 0.71 M 98.13 255.05 C 171.15 171.44 245.13 83.49 319.22 0.71 M 103.77 254.66 C 149.92 203.77 201.46 148.07 324.86 0.32 M 103.77 254.66 C 176.75 174.95 249.55 93.01 324.86 0.32 M 108.76 255.02 C 191.19 154.48 280.86 51.96 329.85 0.68 M 108.76 255.02 C 170.13 178.92 234.72 107.05 329.85 0.68 M 114.4 254.62 C 184.8 170.49 255.56 89.55 335.49 0.28 M 114.4 254.62 C 167.15 194.96 221.92 134.69 335.49 0.28 M 119.39 254.98 C 176.23 189.75 230.05 124.09 340.48 0.64 M 119.39 254.98 C 163.38 205.05 209.21 151.07 340.48 0.64 M 125.03 254.59 C 166.74 200.06 218.9 149.73 346.12 0.25 M 125.03 254.59 C 189.81 180.05 254.92 108.43 346.12 0.25 M 130.02 254.95 C 181.12 189.15 232.7 130.44 351.11 0.61 M 130.02 254.95 C 174.22 205.92 218.53 155.23 351.11 0.61 M 135.66 254.55 C 192.56 184.6 251.42 117.67 356.75 0.22 M 135.66 254.55 C 196.03 177.69 261.73 103.36 356.75 0.22 M 140.65 254.91 C 217.28 165.21 299.56 77.46 361.74 0.58 M 140.65 254.91 C 204.9 177.26 269.72 102.26 361.74 0.58 M 146.29 254.52 C 198.77 192.11 252.84 131.23 367.38 0.18 M 146.29 254.52 C 222.39 168.96 299.06 80.81 367.38 0.18 M 151.28 254.88 C 219.77 178.97 282.77 108 372.37 0.54 M 151.28 254.88 C 219.14 173.48 287.48 94.63 372.37 0.54 M 156.92 254.48 C 214.51 189.77 271.53 123.16 378.01 0.15 M 156.92 254.48 C 218.01 187.21 275.94 117.41 378.01 0.15 M 161.91 254.84 C 224.59 179.83 289.69 106.87 383 0.51 M 161.91 254.84 C 248 161.01 333.23 61.96 383 0.51 M 167.55 254.45 C 219.03 194.54 272.98 136.49 388.64 0.11 M 167.55 254.45 C 249.27 157.16 331.93 63.52 388.64 0.11 M 172.54 254.81 C 236.3 187.17 297.81 111.35 393.63 0.47 M 172.54 254.81 C 222.01 192.59 274.39 132.18 393.63 0.47 M 177.52 255.17 C 229.58 192.04 283.22 134.82 398.62 0.83 M 177.52 255.17 C 241.44 181.45 305.99 106.85 398.62 0.83 M 183.17 254.77 C 265.1 165.2 340.04 75.05 404.26 0.44 M 183.17 254.77 C 247.95 177.68 317.85 97.89 404.26 0.44 M 188.15 255.13 C 252.86 182.34 318.23 105.83 409.25 0.8 M 188.15 255.13 C 262.7 169.17 337.54 83.77 409.25 0.8 M 193.8 254.74 C 253.15 188.57 309.68 123 414.89 0.4 M 193.8 254.74 C 251.97 193.26 307.95 130.27 414.89 0.4 M 198.78 255.1 C 285.6 158.55 373.07 54.51 419.88 0.76 M 198.78 255.1 C 277.68 163.89 357.91 71.02 419.88 0.76 M 204.43 254.71 C 284.05 168.52 358.15 81.2 425.52 0.37 M 204.43 254.71 C 247.06 203.38 292.19 151.79 425.52 0.37 M 209.41 255.07 C 291.39 161.68 371.32 67.4 430.51 0.73 M 209.41 255.07 C 273.59 178.38 337.84 106.64 430.51 0.73 M 215.06 254.67 C 256.59 199.91 302.85 148.85 436.15 0.33 M 215.06 254.67 C 282 174.49 351.51 94.88 436.15 0.33 M 220.04 255.03 C 295.22 173.49 364.73 94.32 441.14 0.69 M 220.04 255.03 C 301.96 159.52 382.04 65.23 441.14 0.69 M 225.69 254.64 C 271.34 203.74 313.1 148.69 446.78 0.3 M 225.69 254.64 C 283.78 191.23 340.28 128.74 446.78 0.3 M 230.67 255 C 277.55 202.37 327.51 145.35 451.77 0.66 M 230.67 255 C 303.62 171.96 376.75 86.52 451.77 0.66 M 236.32 254.6 C 279 205.78 324.82 152.33 457.41 0.27 M 236.32 254.6 C 295.84 190.18 354.25 121.37 457.41 0.27 M 241.3 254.96 C 307.09 180.77 372.79 109.42 462.4 0.63 M 241.3 254.96 C 297.35 193.38 350.44 131.12 462.4 0.63 M 246.95 254.57 C 296.48 203.47 341.54 147.66 468.04 0.23 M 246.95 254.57 C 316.76 173.12 389.13 89.82 468.04 0.23 M 251.93 254.93 C 304.94 190.99 360.75 123.05 473.03 0.59 M 251.93 254.93 C 310.23 186.53 364.77 123.37 473.03 0.59 M 257.58 254.53 C 330.29 181.5 394.77 101.31 478.67 0.2 M 257.58 254.53 C 303.97 202.58 350.2 151.53 478.67 0.2 M 262.56 254.89 C 326.11 177.79 396.5 99.89 483.66 0.56 M 262.56 254.89 C 318.77 194.98 370.53 134.17 483.66 0.56 M 268.21 254.5 C 341.76 164 416.01 81.85 489.3 0.16 M 268.21 254.5 C 350.12 154.67 435.83 58.91 489.3 0.16 M 273.19 254.86 C 335.41 185.45 396.24 116.13 494.29 0.52 M 273.19 254.86 C 347.88 173.86 422.54 89.96 494.29 0.52 M 278.84 254.46 C 334.58 195.73 385.28 132.34 499.93 0.13 M 278.84 254.46 C 354.26 167.62 427.35 82.99 499.93 0.13 M 283.82 254.82 C 353.67 175.84 420.45 98.82 504.92 0.49 M 283.82 254.82 C 337.19 194.27 388.53 136.32 504.92 0.49 M 288.81 255.18 C 358.71 175.12 422.83 102.36 509.9 0.85 M 288.81 255.18 C 341.96 196.63 393.11 138.65 509.9 0.85 M 294.45 254.79 C 374.77 166 453.54 69.18 515.55 0.45 M 294.45 254.79 C 357.77 180.84 422.5 106.54 515.55 0.45 M 299.44 255.15 C 368.96 177.5 432.61 103.4 520.53 0.81 M 299.44 255.15 C 362.85 181.37 425.9 108.54 520.53 0.81 M 305.08 254.76 C 381.67 170.21 452.7 86.08 526.18 0.42 M 305.08 254.76 C 351.22 199.73 400.27 145.59 526.18 0.42 M 310.07 255.12 C 388.03 167.88 464.33 78.73 531.16 0.78 M 310.07 255.12 C 395.09 158.11 478.37 61.13 531.16 0.78 M 315.71 254.72 C 391.93 172.32 465.19 88.36 536.81 0.38 M 315.71 254.72 C 395.95 164.14 475.82 74.26 536.81 0.38 M 320.7 255.08 C 382.49 186.49 439.98 118.58 541.79 0.74 M 320.7 255.08 C 362.68 200.49 410.55 149.95 541.79 0.74 M 326.34 254.69 C 410.74 158.78 493.48 57.87 547.44 0.35 M 326.34 254.69 C 377.62 191.52 430.93 130.61 547.44 0.35 M 331.33 255.05 C 387.3 196.6 438.57 140.73 552.42 0.71 M 331.33 255.05 C 415.44 155.61 499.56 59.11 552.42 0.71 M 336.97 254.65 C 412.42 166.44 486.9 81.94 558.07 0.31 M 336.97 254.65 C 386.14 201.43 434.49 146.13 558.07 0.31 M 341.96 255.01 C 405.79 185.48 469.38 113.17 563.05 0.67 M 341.96 255.01 C 408.25 175.47 476.08 98.44 563.05 0.67 M 347.6 254.62 C 431.22 159.29 510.76 65.41 568.7 0.28 M 347.6 254.62 C 397.55 195.47 447.83 140.23 568.7 0.28 M 352.59 254.98 C 404.39 192.85 460.74 129.58 573.68 0.64 M 352.59 254.98 C 417.66 179.58 483.74 105.1 573.68 0.64 M 358.23 254.58 C 411.18 191.84 468.31 131.09 579.33 0.25 M 358.23 254.58 C 409.68 194.81 460.06 135.94 579.33 0.25 M 363.22 254.94 C 454.46 154.12 540.47 52.99 584.31 0.61 M 363.22 254.94 C 423.86 188.35 481.74 121.02 584.31 0.61 M 368.86 254.55 C 439.63 179.26 505.96 102.31 588.64 1.72 M 368.86 254.55 C 448.41 160.35 532.15 66.04 588.64 1.72 M 373.85 254.91 C 459.22 153.32 551.13 54.76 592.98 2.84 M 373.85 254.91 C 424.3 194.81 476.61 135.41 592.98 2.84 M 379.49 254.51 C 433.78 187.73 490.2 125.39 597.96 3.2 M 379.49 254.51 C 435.45 193.96 487.55 131.28 597.96 3.2 M 384.48 254.87 C 464.43 161.45 547.79 64.07 603.61 2.8 M 384.48 254.87 C 439.86 191.65 494.71 132.24 603.61 2.8 M 390.13 254.48 C 464.11 167.55 545.36 82.23 607.28 4.67 M 390.13 254.48 C 471.42 161.28 553.31 67.04 607.28 4.67 M 395.11 254.84 C 447.61 198.91 497.29 136.17 610.96 6.54 M 395.11 254.84 C 442.33 202.26 486.81 148.03 610.96 6.54 M 400.76 254.44 C 460.88 191.14 518.58 121.78 613.32 9.92 M 400.76 254.44 C 483.16 163.51 560.39 73.5 613.32 9.92 M 405.74 254.81 C 472.19 176.28 541.61 95.61 616.34 12.54 M 405.74 254.81 C 460.88 192.2 519.79 125.75 616.34 12.54 M 410.73 255.17 C 455.63 209.22 497.26 158.77 619.36 15.17 M 410.73 255.17 C 488.76 166.32 567.78 79.09 619.36 15.17 M 416.37 254.77 C 456.28 202 500.54 152.01 620.41 20.06 M 416.37 254.77 C 474.5 189.28 529.48 125.56 620.41 20.06 M 421.36 255.13 C 490.7 170.21 563.01 89.87 622.11 24.19 M 421.36 255.13 C 503.55 161.33 581.94 70.91 622.11 24.19 M 427 254.74 C 483.45 189.55 544.07 124.12 623.82 28.32 M 427 254.74 C 482.69 193.71 532.59 131.99 623.82 28.32 M 431.99 255.1 C 481.45 196.7 530.28 140.17 626.18 31.7 M 431.99 255.1 C 507.84 166.85 585.23 77.92 626.18 31.7 M 437.63 254.7 C 502.16 184.54 565.54 112.58 626.58 37.35 M 437.63 254.7 C 512.78 168.37 586.07 86.38 626.58 37.35 M 442.62 255.06 C 489.13 198.01 542.16 137.06 626.32 43.74 M 442.62 255.06 C 514.46 176.27 584.78 93.77 626.32 43.74 M 448.26 254.67 C 523.12 174.33 587.98 95.67 626.05 50.14 M 448.26 254.67 C 522.2 171.23 592.68 91.57 626.05 50.14 M 453.25 255.03 C 502 206.47 546.78 155.7 626.45 55.78 M 453.25 255.03 C 515.53 186.69 573.19 119.23 626.45 55.78 M 458.89 254.63 C 507.67 199.97 555.52 141.2 626.19 62.18 M 458.89 254.63 C 515.73 185.11 577.19 117.69 626.19 62.18 M 463.88 254.99 C 511.78 196.06 561.13 134.77 626.58 67.82 M 463.88 254.99 C 511.17 201.59 556.19 148.93 626.58 67.82 M 469.52 254.6 C 524.4 197.74 569.4 137.72 626.32 74.22 M 469.52 254.6 C 521.19 191.72 574.02 132.35 626.32 74.22 M 474.51 254.96 C 516.03 209.52 551.12 171.74 626.72 79.87 M 474.51 254.96 C 533.94 186.51 590.23 120.94 626.72 79.87 M 480.15 254.56 C 530.23 199.88 578.19 141.65 626.45 86.26 M 480.15 254.56 C 518.75 204.11 562.36 154.09 626.45 86.26 M 485.14 254.92 C 523.65 206.53 569.81 155.55 626.19 92.66 M 485.14 254.92 C 523.51 204.33 566.55 155.91 626.19 92.66 M 490.78 254.53 C 523.39 214.14 562.64 171.97 626.59 98.3 M 490.78 254.53 C 518.95 221.25 546.24 189.56 626.59 98.3 M 495.77 254.89 C 525.65 225.1 554.29 196 626.33 104.7 M 495.77 254.89 C 544.18 193.46 598.38 135.78 626.33 104.7 M 501.41 254.49 C 530.66 222.58 556.75 192.6 626.72 110.35 M 501.41 254.49 C 543.9 206.45 590.38 154.93 626.72 110.35 M 506.4 254.85 C 551.24 202.61 592.87 154.5 626.46 116.74 M 506.4 254.85 C 544.59 212.72 584.68 168.75 626.46 116.74 M 512.04 254.46 C 557.31 205.94 601.47 158.84 626.85 122.39 M 512.04 254.46 C 539.59 228.26 564.25 198.14 626.85 122.39 M 517.03 254.82 C 547.37 225.06 576.79 188.92 626.59 128.78 M 517.03 254.82 C 546.89 217.57 574.19 184.5 626.59 128.78 M 522.02 255.18 C 548.37 225.02 575.87 196.33 626.33 135.18 M 522.02 255.18 C 560.83 209.49 601.75 161.07 626.33 135.18 M 527.66 254.79 C 546.16 231.2 570.32 206.42 626.73 140.82 M 527.66 254.79 C 557.77 221.48 588.32 181.9 626.73 140.82 M 532.65 255.15 C 558.76 223.87 587.58 195.84 626.46 147.22 M 532.65 255.15 C 556.7 229.08 581.27 200.15 626.46 147.22 M 538.29 254.75 C 554 232.14 576 212.24 626.86 152.87 M 538.29 254.75 C 563.51 228.3 583.08 202.77 626.86 152.87 M 543.28 255.11 C 563.15 229.38 580.22 209.27 626.6 159.26 M 543.28 255.11 C 569.57 225.19 599 192.77 626.6 159.26 M 548.92 254.72 C 579.82 216.16 609.07 186.6 626.99 164.91 M 548.92 254.72 C 573.51 225.19 600.22 195.06 626.99 164.91 M 553.91 255.08 C 584.7 227.58 607.28 195.66 626.73 171.3 M 553.91 255.08 C 575.01 228.12 596.61 204.09 626.73 171.3 M 559.55 254.68 C 576.76 234.13 596.09 210.44 626.47 177.7 M 559.55 254.68 C 587.55 223.82 613.52 195.81 626.47 177.7 M 564.54 255.04 C 582.35 231.81 602.18 212.78 626.86 183.34 M 564.54 255.04 C 587.13 227.96 609.23 205.52 626.86 183.34 M 570.18 254.65 C 586.91 236.16 595.73 218.98 626.6 189.74 M 570.18 254.65 C 584.17 235.77 602.19 221.58 626.6 189.74 M 575.17 255.01 C 594.2 236.12 614.1 214.89 627 195.39 M 575.17 255.01 C 592.3 234.8 610.1 214.97 627 195.39 M 580.81 254.61 C 595.09 244.59 603.95 231.08 626.73 201.78 M 580.81 254.61 C 592.52 241.85 603.98 231.01 626.73 201.78 M 587.11 253.46 C 602.2 238.18 615.55 224.94 627.13 207.43 M 587.11 253.46 C 599.73 237.78 614.36 223.33 627.13 207.43 M 593.41 252.31 C 599.01 246.63 611.15 232.36 624.9 216.09 M 593.41 252.31 C 602.51 241.51 612.7 228.49 624.9 216.09 M 600.36 250.41 C 606.44 241.53 607.3 236.47 623.98 223.24 M 600.36 250.41 C 607.38 243.03 613.66 232.48 623.98 223.24 M 606.66 249.26 C 609.44 244.48 613.96 245.14 621.75 231.9 M 606.66 249.26 C 609.03 244.09 614.74 242.42 621.75 231.9" fill="none" stroke="#e8e8e8" stroke-width="0.5" stroke-linejoin="round" stroke-linecap="round" stroke-miterlimit="10" pointer-events="all"/><path d="M 37.95 0 M 37.95 0 C 198 1.64 359.61 0.91 586.05 0 M 37.95 0 C 172.97 -2.32 307.54 -1.92 586.05 0 M 586.05 0 C 611.43 -0.23 620.35 16.51 624 37.95 M 586.05 0 C 610.81 -1.73 620.21 16.29 624 37.95 M 624 37.95 C 620.04 90.11 621.66 145.21 624 215.05 M 624 37.95 C 624.94 78.47 622.5 122.7 624 215.05 M 624 215.05 C 621.43 237.82 612.16 250.05 586.05 253 M 624 215.05 C 624.03 236.73 610.18 252.98 586.05 253 M 586.05 253 C 413.28 249.17 238.47 249.86 37.95 253 M 586.05 253 C 458.86 257.27 330.88 257.32 37.95 253 M 37.95 253 C 15.72 252.23 2.94 240.05 0 215.05 M 37.95 253 C 14.21 251.97 2.76 238.99 0 215.05 M 0 215.05 C 0.16 149.25 0.46 80.94 0 37.95 M 0 215.05 C 0.31 176.61 2.42 135.4 0 37.95 M 0 37.95 C 2.47 15.56 9.97 1.51 37.95 0 M 0 37.95 C -4.24 12.29 11.61 -0.37 37.95 0" fill="none" stroke="#333333" stroke-linejoin="round" stroke-linecap="round" stroke-miterlimit="10" pointer-events="all"/></g></svg>